# xmcd CD database file
#
# Track frame offsets:
#	150
#	15878
#	33442
#	55074
#	76319
#	98850
#	112792
#	131729
#	147679
#	165309
#	181872
#	198300
#
# Disc length: 2829 seconds
#
# Revision: 2
# Processed by: cddbd v1.5.2PL0 Copyright (c) Steve Scherf et al.
# Submitted via: CDex 1.79
#
DISCID=900b0b0c
DTITLE=Ray Austin and Friends - No Other Way
DYEAR=2007
DGENRE=Blues
TTITLE0=Mean Old Motor Car
TTITLE1=If Anyone Should Ask You
TTITLE2=A Friend
TTITLE3=Riverboat
TTITLE4=Thirty Hours a Day
TTITLE5=Thin Timers
TTITLE6=Long Hard Road
TTITLE7=Hey Mr. Schoolboy
TTITLE8=Peace Of Mind
TTITLE9=No Other Way
TTITLE10=While Flowers Die
TTITLE11=Freiburg Steel
EXTD=YEAR: 2007
EXTT0=
EXTT1=
EXTT2=
EXTT3=
EXTT4=
EXTT5=
EXTT6=
EXTT7=
EXTT8=
EXTT9=
EXTT10=
EXTT11=
PLAYORDER=
